<svg width="50" height="50" viewBox="0 0 50 50" fill="none" xmlns="http://www.w3.org/2000/svg">
<path d="M16.6257 6.00244L18.5899 4.03826L19.572 5.02035L17.6078 6.98453L16.6257 6.00244Z" fill="#A4AFC1"/>
<path d="M10.9785 11.6475L12.9427 9.68327L13.9248 10.6654L11.9606 12.6296L10.9785 11.6475Z" fill="#A4AFC1"/>
<path d="M11.2249 5.01855L12.2069 4.03646L14.1711 6.00065L13.189 6.98274L11.2249 5.01855Z" fill="#A4AFC1"/>
<path d="M20.8333 17.7083V29.1666L12.7458 37.2819C14.8181 39.3471 17.6764 40.6249 20.8333 40.6249C27.1611 40.6249 32.2917 35.4944 32.2917 29.1666C32.2917 22.8388 27.1611 17.7083 20.8333 17.7083Z" fill="#F3F3F1"/>
<path d="M12.7361 37.2916L20.8333 29.1666V17.7083C14.5 17.7083 9.375 22.8333 9.375 29.1666C9.375 32.3333 10.6667 35.2083 12.7361 37.2916Z" fill="#3ADAD9"/>
<path d="M40.6251 10.7639V17.0139C40.6251 17.7806 40.0029 18.4028 39.2362 18.4028H34.0279L30.2084 22.5694V18.4028H27.4306C26.664 18.4028 26.0417 17.7806 26.0417 17.0139V10.7639C26.0417 9.99722 26.664 9.375 27.4306 9.375H39.2362C40.0029 9.375 40.6251 9.99722 40.6251 10.7639Z" fill="#3ADAD9"/>
<path d="M15.8708 37.2819L23.9583 29.1666V18.1513C22.9639 17.8694 21.9181 17.7083 20.8333 17.7083V29.1666L12.7458 37.2819C14.8181 39.3471 17.6764 40.6249 20.8333 40.6249C21.3653 40.6249 21.8833 40.5763 22.3958 40.5055C19.8653 40.1596 17.5945 38.9999 15.8708 37.2819Z" fill="#D5DBE1"/>
<path d="M12.5 29.1666C12.5 23.918 16.0236 19.5096 20.8333 18.1499V17.7083C14.5 17.7083 9.375 22.8333 9.375 29.1666C9.375 32.3333 10.6667 35.2083 12.7361 37.2916L14.4514 35.5694C13.2222 33.7374 12.5 31.5333 12.5 29.1666Z" fill="#384AEA"/>
<path d="M33.3334 19.1597V18.4028H30.5556C29.789 18.4028 29.1667 17.7806 29.1667 17.0139V10.7639C29.1667 9.99722 29.789 9.375 30.5556 9.375H27.4306C26.664 9.375 26.0417 9.99722 26.0417 10.7639V17.0139C26.0417 17.7806 26.664 18.4028 27.4306 18.4028H30.2084V22.5694L33.3334 19.1597Z" fill="#384AEA"/>
<path d="M20.8333 41.6667C13.9402 41.6667 8.33325 36.0597 8.33325 29.1667C8.33325 22.0236 14.4194 16.25 21.568 16.6819L22.6083 16.7444L22.4846 18.8236L21.4458 18.7625C21.236 18.7486 21.0249 18.7528 20.8333 18.75C15.0888 18.75 10.4166 23.4222 10.4166 29.1667C10.4166 34.9111 15.0888 39.5833 20.8333 39.5833C26.5777 39.5833 31.2499 34.9111 31.2499 29.1667C31.2499 28.3139 31.143 27.4667 30.9319 26.65L30.6721 25.6403L32.6888 25.1208L32.9499 26.1292C33.2041 27.1153 33.3333 28.1389 33.3333 29.1667C33.3333 36.0597 27.7263 41.6667 20.8333 41.6667Z" fill="#3ADAD9"/>
<path d="M13.4875 38.0124L12.0125 36.5416L19.793 28.736V17.7083H21.8763V29.1666C21.8763 29.4416 21.7666 29.7069 21.5722 29.9013L13.4875 38.0124Z" fill="#3ADAD9"/>
<path d="M30.2083 23.611C30.0806 23.611 29.9528 23.5874 29.8319 23.5402C29.4292 23.3846 29.1667 22.9999 29.1667 22.5694V19.4444H27.4306C26.0903 19.4444 25 18.3541 25 17.0138V10.7638C25 9.42353 26.0903 8.33325 27.4306 8.33325H39.2361C40.5764 8.33325 41.6667 9.42353 41.6667 10.7638V17.0138C41.6667 18.3541 40.5764 19.4444 39.2361 19.4444H34.4861L30.9764 23.2735C30.775 23.493 30.4944 23.611 30.2083 23.611ZM27.4306 10.4166C27.2389 10.4166 27.0833 10.5721 27.0833 10.7638V17.0138C27.0833 17.2055 27.2389 17.361 27.4306 17.361H30.2083C30.7833 17.361 31.25 17.8277 31.25 18.4027V19.8916L33.2597 17.6985C33.4569 17.4833 33.7361 17.361 34.0278 17.361H39.2361C39.4278 17.361 39.5833 17.2055 39.5833 17.0138V10.7638C39.5833 10.5721 39.4278 10.4166 39.2361 10.4166H27.4306Z" fill="#3ADAD9"/>
<path d="M29.861 14.9305C29.7221 14.9305 29.5832 14.9027 29.4582 14.8472C29.3332 14.7916 29.2221 14.7222 29.1249 14.6249C28.9304 14.4305 28.8193 14.1666 28.8193 13.8888C28.8193 13.6111 28.9304 13.3472 29.1249 13.1527C29.2221 13.0555 29.3332 12.9722 29.4582 12.9305C29.7221 12.8194 29.9999 12.8194 30.2638 12.9305C30.3888 12.9722 30.4999 13.0555 30.5971 13.1527C30.7916 13.3472 30.9027 13.6111 30.9027 13.8888C30.9027 14.1666 30.7916 14.4305 30.5971 14.6249C30.4999 14.7222 30.3888 14.7916 30.2638 14.8472C30.1249 14.9027 29.9999 14.9305 29.861 14.9305Z" fill="#3ADAD9"/>
<path d="M33.3334 14.9304C33.0556 14.9304 32.7917 14.8193 32.5973 14.6249C32.5001 14.5276 32.4167 14.4165 32.3751 14.2915C32.3195 14.1526 32.2917 14.0276 32.2917 13.8887C32.2917 13.611 32.4029 13.3471 32.5973 13.1526C32.6945 13.0554 32.8056 12.986 32.9306 12.9304C33.3195 12.7637 33.7779 12.861 34.0695 13.1526C34.264 13.3471 34.3751 13.611 34.3751 13.8887C34.3751 14.0276 34.3473 14.1665 34.2917 14.2915C34.2362 14.4165 34.1667 14.5276 34.0695 14.6249C33.9723 14.7221 33.8612 14.7915 33.7362 14.8471C33.6112 14.9026 33.4723 14.9304 33.3334 14.9304Z" fill="#3ADAD9"/>
<path d="M36.8056 14.9305C36.6667 14.9305 36.5417 14.9027 36.4028 14.8472C36.2778 14.8055 36.1667 14.7222 36.0695 14.625C35.9722 14.5277 35.9028 14.4166 35.8472 14.2916C35.7917 14.1666 35.7639 14.0277 35.7639 13.8889C35.7639 13.6111 35.875 13.3472 36.0695 13.1528C36.4584 12.7639 37.1528 12.7639 37.5417 13.1528C37.6389 13.25 37.7222 13.3611 37.7639 13.4861C37.8195 13.6111 37.8472 13.75 37.8472 13.8889C37.8472 14.1666 37.7361 14.4305 37.5417 14.625C37.3472 14.8194 37.0834 14.9305 36.8056 14.9305Z" fill="#3ADAD9"/>
</svg>
