<svg width="51" height="51" viewBox="0 0 51 51" fill="none" xmlns="http://www.w3.org/2000/svg">
<g id="023-business presentation 1">
<g id="Group">
<path id="Vector" d="M44.9154 8.10978C43.7668 8.10978 42.832 7.17506 42.832 6.02645C42.832 4.87784 43.7668 3.94312 44.9154 3.94312C46.064 3.94312 46.9987 4.87784 46.9987 6.02645C46.9987 7.17506 46.064 8.10978 44.9154 8.10978ZM44.9154 5.332C44.532 5.332 44.2209 5.64311 44.2209 6.02645C44.2209 6.40978 44.532 6.72089 44.9154 6.72089C45.2987 6.72089 45.6098 6.40978 45.6098 6.02645C45.6098 5.64311 45.2987 5.332 44.9154 5.332Z" fill="#A4AFC1"/>
</g>
<g id="Group_2">
<path id="Vector_2" d="M36.5821 31.3736C37.5409 31.3736 38.3182 30.5963 38.3182 29.6375C38.3182 28.6787 37.5409 27.9014 36.5821 27.9014C35.6232 27.9014 34.8459 28.6787 34.8459 29.6375C34.8459 30.5963 35.6232 31.3736 36.5821 31.3736Z" fill="#F3F3F1"/>
</g>
<g id="Group_3">
<path id="Vector_3" d="M14.3599 31.3736C15.3187 31.3736 16.096 30.5963 16.096 29.6375C16.096 28.6787 15.3187 27.9014 14.3599 27.9014C13.4011 27.9014 12.6238 28.6787 12.6238 29.6375C12.6238 30.5963 13.4011 31.3736 14.3599 31.3736Z" fill="#F3F3F1"/>
</g>
<g id="Group_4">
<path id="Vector_4" d="M25.4709 32.0681C27.1968 32.0681 28.5959 30.669 28.5959 28.9431C28.5959 27.2172 27.1968 25.8181 25.4709 25.8181C23.7451 25.8181 22.3459 27.2172 22.3459 28.9431C22.3459 30.669 23.7451 32.0681 25.4709 32.0681Z" fill="#F3F3F1"/>
</g>
<g id="Group_5">
<path id="Vector_5" d="M32.0682 42.1376V39.0126C32.0682 37.4779 30.8252 36.2349 29.2904 36.2349H21.6516C20.1168 36.2349 18.8738 37.4779 18.8738 39.0126V42.1376H32.0682Z" fill="#F3F3F1"/>
</g>
<g id="Group_6">
<path id="Vector_6" d="M18.8737 39.3598V37.6237C18.8737 36.089 17.6307 34.8459 16.0959 34.8459H12.6237C11.089 34.8459 9.84595 36.089 9.84595 37.6237V39.3598H18.8737Z" fill="#F3F3F1"/>
</g>
<g id="Group_7">
<path id="Vector_7" d="M41.0959 39.3598V37.6237C41.0959 36.089 39.8528 34.8459 38.3181 34.8459H34.8459C33.3112 34.8459 32.0681 36.089 32.0681 37.6237V39.3598H41.0959Z" fill="#F3F3F1"/>
</g>
<g id="Group_8">
<path id="Vector_8" d="M34.1516 24.4293C35.6793 24.4293 36.9293 23.1793 36.9293 21.6515V9.84595H14.0127V21.6515C14.0127 23.1793 15.2627 24.4293 16.7905 24.4293H34.1516Z" fill="#2F4BDF"/>
</g>
<g id="Group_9">
<path id="Vector_9" d="M37.971 29.6375C37.971 29.3736 38.039 29.1305 38.1446 28.9069C37.8668 28.3166 37.2765 27.9014 36.5821 27.9014C35.6237 27.9014 34.8459 28.6791 34.8459 29.6375C34.8459 30.5958 35.6237 31.3736 36.5821 31.3736C37.2765 31.3736 37.8668 30.9583 38.1446 30.368C38.039 30.1444 37.971 29.9014 37.971 29.6375Z" fill="#D5DBE1"/>
</g>
<g id="Group_10">
<path id="Vector_10" d="M15.7488 29.6375C15.7488 29.3736 15.8168 29.1305 15.9224 28.9069C15.6446 28.3166 15.0543 27.9014 14.3599 27.9014C13.4016 27.9014 12.6238 28.6791 12.6238 29.6375C12.6238 30.5958 13.4016 31.3736 14.3599 31.3736C15.0543 31.3736 15.6446 30.9583 15.9224 30.368C15.8168 30.1444 15.7488 29.9014 15.7488 29.6375Z" fill="#D5DBE1"/>
</g>
<g id="Group_11">
<path id="Vector_11" d="M25.4709 28.9431C25.4709 27.7889 26.1029 26.7931 27.0334 26.2514C26.5723 25.9834 26.0432 25.8181 25.4709 25.8181C23.7446 25.8181 22.3459 27.2167 22.3459 28.9431C22.3459 30.6695 23.7446 32.0681 25.4709 32.0681C26.0432 32.0681 26.5723 31.9028 27.0334 31.6348C26.1029 31.0931 25.4709 30.0973 25.4709 28.9431Z" fill="#D5DBE1"/>
</g>
<g id="Group_12">
<path id="Vector_12" d="M24.7766 36.2349H21.6516C20.1168 36.2349 18.8738 37.4779 18.8738 39.0126V42.1376H21.9988V39.0126C21.9988 37.4779 23.2418 36.2349 24.7766 36.2349Z" fill="#D5DBE1"/>
</g>
<g id="Group_13">
<path id="Vector_13" d="M15.7487 34.8459H12.6237C11.089 34.8459 9.84595 36.089 9.84595 37.6237V39.3598H12.9709V37.6237C12.9709 36.089 14.214 34.8459 15.7487 34.8459Z" fill="#D5DBE1"/>
</g>
<g id="Group_14">
<path id="Vector_14" d="M37.9709 34.8459H34.8459C33.3112 34.8459 32.0681 36.089 32.0681 37.6237V39.3598H35.1931V37.6237C35.1931 36.089 36.4362 34.8459 37.9709 34.8459Z" fill="#D5DBE1"/>
</g>
<g id="Group_15">
<path id="Vector_15" d="M17.1377 21.6515V9.84595H14.0127V21.6515C14.0127 23.1793 15.2627 24.4293 16.7905 24.4293H19.9155C18.3877 24.4293 17.1377 23.1793 17.1377 21.6515Z" fill="#384AEA"/>
</g>
<g id="Group_16">
<path id="Vector_16" d="M11.2349 8.80444H39.7071V10.8878H11.2349V8.80444Z" fill="black"/>
</g>
<g id="Group_17">
<path id="Vector_17" d="M34.1515 25.4711H31.0265V23.3878H34.1515C35.1084 23.3878 35.8876 22.6086 35.8876 21.6517V10.8878H15.0543V21.6517C15.0543 22.6086 15.8334 23.3878 16.7904 23.3878H19.9154V25.4711H16.7904C14.6834 25.4711 12.9709 23.7586 12.9709 21.6517V9.84611C12.9709 9.27111 13.4376 8.80444 14.0126 8.80444H36.9293C37.5043 8.80444 37.9709 9.27111 37.9709 9.84611V21.6517C37.9709 23.7586 36.2584 25.4711 34.1515 25.4711Z" fill="black"/>
</g>
<g id="Group_18">
<path id="Vector_18" d="M20.9986 20.9988L19.5264 19.5266L22.9986 16.0543C23.3305 15.721 23.8444 15.6529 24.2514 15.8863L26.0194 16.8974L29.9722 13.2488L31.3861 14.7807L26.8722 18.9474C26.5389 19.2557 26.0444 19.3127 25.6486 19.0863L23.9097 18.0918L20.9986 20.9988Z" fill="#B1BFF4"/>
</g>
<g id="Group_19">
<path id="Vector_19" d="M31.7211 18.5265H29.6378V15.0543H26.1655V12.9709H30.6794C31.2544 12.9709 31.7211 13.4376 31.7211 14.0126V18.5265Z" fill="#B1BFF4"/>
</g>
<g id="Group_20">
<path id="Vector_20" d="M36.582 32.4154C35.05 32.4154 33.8042 31.1696 33.8042 29.6376C33.8042 28.1057 35.05 26.8599 36.582 26.8599C38.1139 26.8599 39.3598 28.1057 39.3598 29.6376C39.3598 31.1696 38.1139 32.4154 36.582 32.4154ZM36.582 28.9432C36.1986 28.9432 35.8875 29.2543 35.8875 29.6376C35.8875 30.021 36.1986 30.3321 36.582 30.3321C36.9653 30.3321 37.2764 30.021 37.2764 29.6376C37.2764 29.2543 36.9653 28.9432 36.582 28.9432Z" fill="black"/>
</g>
<g id="Group_21">
<path id="Vector_21" d="M42.1375 39.36H40.0542V37.6239C40.0542 36.6669 39.275 35.8878 38.3181 35.8878H33.8042V33.8044H38.3181C40.425 33.8044 42.1375 35.5169 42.1375 37.6239V39.36Z" fill="black"/>
</g>
<g id="Group_22">
<path id="Vector_22" d="M14.3598 32.4154C12.8279 32.4154 11.582 31.1696 11.582 29.6376C11.582 28.1057 12.8279 26.8599 14.3598 26.8599C15.8918 26.8599 17.1376 28.1057 17.1376 29.6376C17.1376 31.1696 15.8918 32.4154 14.3598 32.4154ZM14.3598 28.9432C13.9765 28.9432 13.6654 29.2543 13.6654 29.6376C13.6654 30.021 13.9765 30.3321 14.3598 30.3321C14.7431 30.3321 15.0543 30.021 15.0543 29.6376C15.0543 29.2543 14.7431 28.9432 14.3598 28.9432Z" fill="black"/>
</g>
<g id="Group_23">
<path id="Vector_23" d="M10.8875 39.36H8.8042V37.6239C8.8042 35.5169 10.5167 33.8044 12.6236 33.8044H17.1375V35.8878H12.6236C11.6667 35.8878 10.8875 36.6669 10.8875 37.6239V39.36Z" fill="black"/>
</g>
<g id="Group_24">
<path id="Vector_24" d="M25.4709 33.1097C23.1736 33.1097 21.3042 31.2403 21.3042 28.943C21.3042 26.6458 23.1736 24.7764 25.4709 24.7764C27.7681 24.7764 29.6375 26.6458 29.6375 28.943C29.6375 31.2403 27.7681 33.1097 25.4709 33.1097ZM25.4709 26.8597C24.3223 26.8597 23.3875 27.7944 23.3875 28.943C23.3875 30.0916 24.3223 31.0264 25.4709 31.0264C26.6195 31.0264 27.5542 30.0916 27.5542 28.943C27.5542 27.7944 26.6195 26.8597 25.4709 26.8597Z" fill="black"/>
</g>
<g id="Group_25">
<path id="Vector_25" d="M33.1098 42.1376H31.0265V39.0126C31.0265 38.0556 30.2473 37.2764 29.2904 37.2764H21.6515C20.6945 37.2764 19.9154 38.0556 19.9154 39.0126V42.1376H17.832V39.0126C17.832 36.9056 19.5445 35.1931 21.6515 35.1931H29.2904C31.3973 35.1931 33.1098 36.9056 33.1098 39.0126V42.1376Z" fill="black"/>
</g>
<g id="Group_26">
<path id="Vector_26" d="M3.24878 40.0544H47.6932V42.1378H3.24878V40.0544Z" fill="black"/>
</g>
</g>
</svg>
