<svg width="49" height="49" viewBox="0 0 49 49" fill="none" xmlns="http://www.w3.org/2000/svg">
<g id="fast-charge 1">
<g id="Fast Charging">
<path id="Vector" d="M36.6812 24.0482L33.6187 30.9388C33.5583 31.0731 33.4605 31.1872 33.3369 31.2673C33.2133 31.3474 33.0693 31.3902 32.922 31.3905C32.8681 31.3892 32.8144 31.3841 32.7612 31.3752C32.5897 31.3383 32.436 31.2437 32.3259 31.1071C32.2158 30.9706 32.156 30.8003 32.1564 30.6249V26.0311H29.8595C29.7318 26.0309 29.6062 25.9987 29.4941 25.9374C29.382 25.8762 29.287 25.788 29.2178 25.6807C29.1486 25.5734 29.1072 25.4505 29.0976 25.3231C29.088 25.1958 29.1104 25.0681 29.1628 24.9516L32.2253 18.061C32.2957 17.9003 32.4197 17.769 32.576 17.6895C32.7323 17.6099 32.9114 17.587 33.0828 17.6246C33.2543 17.6614 33.408 17.756 33.5181 17.8926C33.6282 18.0292 33.688 18.1994 33.6876 18.3749V22.9686H35.9845C36.1122 22.9689 36.2378 23.0011 36.3499 23.0623C36.4619 23.1235 36.5569 23.2118 36.6262 23.3191C36.6954 23.4264 36.7367 23.5493 36.7463 23.6766C36.756 23.804 36.7336 23.9317 36.6812 24.0482Z" fill="#2F4BDF"/>
<path id="Vector_2" d="M32.9219 11.4844H12.25C11.8448 11.4874 11.4571 11.6497 11.1706 11.9362C10.884 12.2227 10.7218 12.6104 10.7188 13.0156C10.72 13.4214 10.8817 13.8101 11.1686 14.097C11.4555 14.3839 11.8443 14.5457 12.25 14.5469C12.4531 14.5469 12.6478 14.6275 12.7914 14.7711C12.935 14.9147 13.0156 15.1094 13.0156 15.3125C13.0156 15.5156 12.935 15.7103 12.7914 15.8539C12.6478 15.9975 12.4531 16.0781 12.25 16.0781H7.65625C7.25107 16.0811 6.86333 16.2434 6.57681 16.5299C6.2903 16.8165 6.12801 17.2042 6.125 17.6094C6.12621 18.0151 6.28793 18.4039 6.57483 18.6908C6.86173 18.9777 7.25051 19.1394 7.65625 19.1406H19.8756C20.0024 19.13 20.1299 19.1511 20.2465 19.202C20.3631 19.253 20.4651 19.3322 20.5434 19.4326C20.6217 19.5329 20.6737 19.6511 20.6948 19.7766C20.7159 19.9021 20.7054 20.0308 20.6642 20.1512C20.4056 20.8907 20.2135 21.6516 20.09 22.4252C20.0584 22.6153 19.9568 22.7867 19.8052 22.9057C19.6536 23.0248 19.463 23.0827 19.2708 23.0683C19.1606 23.0561 19.0539 23.0223 18.9569 22.9688H13.7812C13.3761 22.9718 12.9883 23.134 12.7018 23.4206C12.4153 23.7071 12.253 24.0948 12.25 24.5C12.2512 24.9057 12.4129 25.2945 12.6998 25.5814C12.9867 25.8683 13.3755 26.03 13.7812 26.0312H19.1483C19.1866 26.0236 19.2325 26.0159 19.2784 26.0083C19.467 25.9884 19.6562 26.0404 19.8081 26.154C19.96 26.2675 20.0634 26.4343 20.0977 26.6208C20.2204 27.3787 20.41 28.1243 20.6642 28.8488C20.7193 29.003 20.7237 29.1708 20.6769 29.3278C20.6301 29.4847 20.5345 29.6227 20.4039 29.7216C20.3205 29.7841 20.2251 29.8286 20.1236 29.8523C20.0221 29.876 19.9168 29.8784 19.8144 29.8594H7.65625C7.25051 29.8606 6.86173 30.0223 6.57483 30.3092C6.28793 30.5961 6.12621 30.9849 6.125 31.3906C6.12801 31.7958 6.2903 32.1835 6.57681 32.4701C6.86333 32.7566 7.25107 32.9189 7.65625 32.9219H12.25C12.4531 32.9219 12.6478 33.0025 12.7914 33.1461C12.935 33.2897 13.0156 33.4844 13.0156 33.6875C13.0156 33.8906 12.935 34.0853 12.7914 34.2289C12.6478 34.3725 12.4531 34.4531 12.25 34.4531C11.8443 34.4543 11.4555 34.6161 11.1686 34.903C10.8817 35.1899 10.72 35.5786 10.7188 35.9844C10.7218 36.3896 10.884 36.7773 11.1706 37.0638C11.4571 37.3503 11.8448 37.5126 12.25 37.5156H32.9219C36.3738 37.5156 39.6844 36.1443 42.1253 33.7034C44.5662 31.2625 45.9375 27.952 45.9375 24.5C45.9375 21.048 44.5662 17.7375 42.1253 15.2966C39.6844 12.8557 36.3738 11.4844 32.9219 11.4844ZM32.9219 34.4531C30.9533 34.4531 29.029 33.8694 27.3922 32.7757C25.7554 31.6821 24.4797 30.1276 23.7264 28.3089C22.9731 26.4902 22.776 24.489 23.16 22.5582C23.544 20.6275 24.492 18.854 25.884 17.4621C27.2759 16.0701 29.0494 15.1222 30.9801 14.7381C32.9108 14.3541 34.9121 14.5512 36.7308 15.3045C38.5495 16.0578 40.1039 17.3336 41.1976 18.9703C42.2913 20.6071 42.875 22.5315 42.875 24.5C42.8726 27.139 41.8232 29.6692 39.9571 31.5352C38.0911 33.4013 35.5609 34.4507 32.9219 34.4531Z" fill="#2F4BDF"/>
<path id="Vector_3" d="M6.125 26.0312C6.53111 26.0312 6.92059 25.8699 7.20776 25.5828C7.49492 25.2956 7.65625 24.9061 7.65625 24.5C7.65625 24.0939 7.49492 23.7044 7.20776 23.4172C6.92059 23.1301 6.53111 22.9688 6.125 22.9688H4.59375C4.18764 22.9688 3.79816 23.1301 3.51099 23.4172C3.22383 23.7044 3.0625 24.0939 3.0625 24.5C3.0625 24.9061 3.22383 25.2956 3.51099 25.5828C3.79816 25.8699 4.18764 26.0312 4.59375 26.0312H6.125Z" fill="#2F4BDF"/>
</g>
</g>
</svg>
