<svg width="140" height="27" viewBox="0 0 140 27" fill="none" xmlns="http://www.w3.org/2000/svg">
<g id="Group 8">
<path id="Star 1" d="M14.1794 0.292847L18.0952 8.22712L26.8512 9.49944L20.5153 15.6754L22.011 24.396L14.1794 20.2787L6.34778 24.396L7.84348 15.6754L1.50759 9.49944L10.2636 8.22712L14.1794 0.292847Z" fill="#FFCD1A"/>
<path id="Star 2" d="M42.2302 0.292847L46.146 8.22712L54.9019 9.49944L48.566 15.6754L50.0617 24.396L42.2302 20.2787L34.3986 24.396L35.8943 15.6754L29.5584 9.49944L38.3144 8.22712L42.2302 0.292847Z" fill="#FFCD1A"/>
<path id="Star 3" d="M70.28 0.292847L74.1958 8.22712L82.9517 9.49944L76.6159 15.6754L78.1116 24.396L70.28 20.2787L62.4484 24.396L63.9441 15.6754L57.6082 9.49944L66.3642 8.22712L70.28 0.292847Z" fill="#FFCD1A"/>
<path id="Star 4" d="M98.3305 0.292847L102.246 8.22712L111.002 9.49944L104.666 15.6754L106.162 24.396L98.3305 20.2787L90.4989 24.396L91.9946 15.6754L85.6587 9.49944L94.4147 8.22712L98.3305 0.292847Z" fill="#FFCD1A"/>
<path id="Star 5" d="M126.381 0.292847L130.297 8.22712L139.053 9.49944L132.717 15.6754L134.213 24.396L126.381 20.2787L118.549 24.396L120.045 15.6754L113.709 9.49944L122.465 8.22712L126.381 0.292847Z" fill="#FFCD1A"/>
</g>
</svg>
