<svg width="80" height="203" viewBox="0 0 80 203" fill="none" xmlns="http://www.w3.org/2000/svg">
<g id="Group 28">
<circle id="Ellipse 81" cx="40" cy="163" r="40" fill="#EDF1FF"/>
<g id="Group 27">
<g id="Group">
<path id="Vector" d="M21.2925 5.30273H24.1703V6.66577H21.2925V5.30273Z" fill="#A4AFC1"/>
</g>
<g id="Group_2">
<path id="Vector_2" d="M25.9688 0.872314H27.4077V3.59888H25.9688V0.872314Z" fill="#A4AFC1"/>
</g>
<g id="Group_3">
<path id="Vector_3" d="M56.1853 5.30273H59.0631V6.66577H56.1853V5.30273Z" fill="#A4AFC1"/>
</g>
<g id="Group_4">
<path id="Vector_4" d="M52.9478 0.872314H54.3867V3.59888H52.9478V0.872314Z" fill="#A4AFC1"/>
</g>
<g id="Group_5">
<path id="Vector_5" d="M29.386 27.2844C30.7767 27.2844 31.9041 26.2163 31.9041 24.8988C31.9041 23.5813 30.7767 22.5132 29.386 22.5132C27.9953 22.5132 26.8679 23.5813 26.8679 24.8988C26.8679 26.2163 27.9953 27.2844 29.386 27.2844Z" fill="#F3F3F1"/>
</g>
<g id="Group_6">
<path id="Vector_6" d="M34.7819 35.1226V33.4186C34.7819 31.9122 33.4941 30.6921 31.9041 30.6921H26.868C25.278 30.6921 23.9902 31.9122 23.9902 33.4186V35.1226H34.7819Z" fill="#F3F3F1"/>
</g>
<g id="Group_7">
<path id="Vector_7" d="M50.9692 27.2844C52.3599 27.2844 53.4873 26.2163 53.4873 24.8988C53.4873 23.5813 52.3599 22.5132 50.9692 22.5132C49.5785 22.5132 48.4512 23.5813 48.4512 24.8988C48.4512 26.2163 49.5785 27.2844 50.9692 27.2844Z" fill="#F3F3F1"/>
</g>
<g id="Group_8">
<path id="Vector_8" d="M56.3652 35.1226V33.4186C56.3652 31.9122 55.0774 30.6921 53.4874 30.6921H48.4513C46.8613 30.6921 45.5735 31.9122 45.5735 33.4186V35.1226H56.3652Z" fill="#F3F3F1"/>
</g>
<g id="Group_9">
<path id="Vector_9" d="M35.8683 14.9298C34.0438 13.5162 32.9934 11.2356 33.4495 8.75046C33.9157 6.2013 36.0395 4.10062 38.713 3.57307C43.1246 2.70335 47.0125 5.8755 47.0125 9.90372C47.0125 11.9799 45.9765 13.827 44.3736 15.0157C43.4225 15.7218 42.9117 16.8355 42.9117 17.982V21.8998C42.9117 22.6114 42.2958 23.1948 41.5447 23.1948H38.8108C38.0597 23.1948 37.4439 22.625 37.4439 21.5236V17.982C37.4439 16.7878 36.8439 15.685 35.8683 14.9298Z" fill="#2F4BDF"/>
</g>
<g id="Group_10">
<path id="Vector_10" d="M30.1054 24.8988C30.1054 24.1681 30.4594 23.5233 31.0048 23.0857C30.5659 22.734 30.0062 22.5132 29.386 22.5132C27.996 22.5132 26.8679 23.5819 26.8679 24.8988C26.8679 26.2157 27.996 27.2844 29.386 27.2844C30.0062 27.2844 30.5659 27.0636 31.0048 26.7119C30.4594 26.2743 30.1054 25.6295 30.1054 24.8988Z" fill="#D5DBE1"/>
</g>
<g id="Group_11">
<path id="Vector_11" d="M30.1055 30.6921H26.868C25.278 30.6921 23.9902 31.9122 23.9902 33.4186V35.1226H27.2277V33.4186C27.2277 31.9122 28.5156 30.6921 30.1055 30.6921Z" fill="#D5DBE1"/>
</g>
<g id="Group_12">
<path id="Vector_12" d="M51.6887 24.8988C51.6887 24.1681 52.0427 23.5233 52.588 23.0857C52.1491 22.734 51.5894 22.5132 50.9692 22.5132C49.5793 22.5132 48.4512 23.5819 48.4512 24.8988C48.4512 26.2157 49.5793 27.2844 50.9692 27.2844C51.5894 27.2844 52.1491 27.0636 52.588 26.7119C52.0427 26.2743 51.6887 25.6295 51.6887 24.8988Z" fill="#D5DBE1"/>
</g>
<g id="Group_13">
<path id="Vector_13" d="M51.6888 30.6921H48.4513C46.8613 30.6921 45.5735 31.9122 45.5735 33.4186V35.1226H48.811V33.4186C48.811 31.9122 50.0988 30.6921 51.6888 30.6921Z" fill="#D5DBE1"/>
</g>
<g id="Group_14">
<path id="Vector_14" d="M40.6813 21.5235V17.982C40.6813 16.7878 40.0813 15.685 39.1057 14.9284C37.2812 13.5148 36.2308 11.2341 36.6869 8.74903C37.1445 6.25029 39.1978 4.1905 41.7978 3.61386C40.8324 3.39303 39.7892 3.36031 38.7129 3.57297C36.0394 4.10053 33.9156 6.20121 33.4494 8.75039C32.9948 11.2355 34.0451 13.5161 35.8682 14.9298C36.8438 15.6863 37.4438 16.7892 37.4438 17.9833V21.5249C37.4438 22.625 38.0596 23.1948 38.8107 23.1948H41.5446C41.6352 23.1948 41.7158 23.1621 41.8007 23.1458C41.1705 23.0285 40.6813 22.4969 40.6813 21.5235Z" fill="#384AEA"/>
</g>
<g id="Group_15">
<path id="Vector_15" d="M37.4438 18.0825H42.913V20.1277H37.4438V18.0825Z" fill="black"/>
</g>
<g id="Group_16">
<path id="Vector_16" d="M41.5446 24.2168H38.8107C37.6322 24.2168 36.3646 23.3744 36.3646 21.5232V17.9817C36.3646 17.1256 35.9343 16.3009 35.1861 15.7202C32.9342 13.9753 31.8867 11.3049 32.386 8.5758C32.9314 5.59728 35.3861 3.18447 38.4927 2.57241C40.8798 2.10484 43.3115 2.65556 45.1691 4.08553C47.0253 5.51685 48.0915 7.63794 48.0915 9.90353C48.0915 12.2236 46.9792 14.3802 45.0396 15.8197C44.3835 16.3063 43.9907 17.1147 43.9907 17.9803V21.8994C43.9907 23.1767 42.8942 24.2168 41.5446 24.2168ZM40.1618 4.45358C39.7531 4.45358 39.3416 4.49311 38.9315 4.57354C36.684 5.01657 34.907 6.76552 34.5127 8.92341C34.1487 10.9164 34.9098 12.8657 36.5516 14.1362C37.8049 15.1067 38.5229 16.5094 38.5229 17.9803V21.5218C38.5229 21.5886 38.5315 22.1707 38.8107 22.1707H41.5446C41.7 22.1707 41.8323 22.0453 41.8323 21.898V17.9789C41.8323 16.4904 42.5331 15.0808 43.7072 14.2084C45.1231 13.1601 45.9332 11.5911 45.9332 9.90353C45.9332 8.25682 45.1576 6.71372 43.805 5.67226C42.7719 4.8748 41.4884 4.45358 40.1618 4.45358Z" fill="black"/>
</g>
<g id="Group_17">
<path id="Vector_17" d="M44.4943 10.5852H42.336V9.5628C42.336 8.62354 41.5288 7.85878 40.5374 7.85878H39.4583V5.81396H40.5374C42.7202 5.81396 44.4943 7.4948 44.4943 9.5628V10.5852Z" fill="#B1BFF4"/>
</g>
<g id="Group_18">
<path id="Vector_18" d="M29.386 28.3066C27.4018 28.3066 25.7888 26.7772 25.7888 24.8988C25.7888 23.0204 27.4018 21.491 29.386 21.491C31.3702 21.491 32.9832 23.0204 32.9832 24.8988C32.9832 26.7772 31.3702 28.3066 29.386 28.3066ZM29.386 23.5357C28.5918 23.5357 27.9471 24.1477 27.9471 24.8988C27.9471 25.6499 28.5918 26.2619 29.386 26.2619C30.1803 26.2619 30.8249 25.6499 30.8249 24.8988C30.8249 24.1477 30.1803 23.5357 29.386 23.5357Z" fill="black"/>
</g>
<g id="Group_19">
<path id="Vector_19" d="M35.8611 35.1226H33.7028V33.4185C33.7028 32.4793 32.8955 31.7145 31.9042 31.7145H26.8681C25.8767 31.7145 25.0695 32.4793 25.0695 33.4185V35.1226H22.9111V33.4185C22.9111 31.3505 24.6853 29.6697 26.8681 29.6697H31.9042C34.0869 29.6697 35.8611 31.3505 35.8611 33.4185V35.1226Z" fill="black"/>
</g>
<g id="Group_20">
<path id="Vector_20" d="M50.9693 28.3066C48.9851 28.3066 47.3721 26.7772 47.3721 24.8988C47.3721 23.0204 48.9851 21.491 50.9693 21.491C52.9535 21.491 54.5665 23.0204 54.5665 24.8988C54.5665 26.7772 52.9535 28.3066 50.9693 28.3066ZM50.9693 23.5357C50.175 23.5357 49.5304 24.1477 49.5304 24.8988C49.5304 25.6499 50.175 26.2619 50.9693 26.2619C51.7636 26.2619 52.4082 25.6499 52.4082 24.8988C52.4082 24.1477 51.7636 23.5357 50.9693 23.5357Z" fill="black"/>
</g>
<g id="Group_21">
<path id="Vector_21" d="M57.4443 35.1226H55.286V33.4185C55.286 32.4793 54.4788 31.7145 53.4874 31.7145H48.4513C47.4599 31.7145 46.6527 32.4793 46.6527 33.4185V35.1226H44.4944V33.4185C44.4944 31.3505 46.2685 29.6697 48.4513 29.6697H53.4874C55.6702 29.6697 57.4443 31.3505 57.4443 33.4185V35.1226Z" fill="black"/>
</g>
<g id="Group_22">
<path id="Vector_22" d="M17.1555 33.0779H63.2V35.1226H17.1555V33.0779Z" fill="black"/>
</g>
</g>
</g>
</svg>
