<svg width="117" height="23" viewBox="0 0 117 23" fill="none" xmlns="http://www.w3.org/2000/svg">
<rect width="117" height="23" fill="#E5E5E5"/>
<g id="Frame" clip-path="url(#clip0_0_1)">
<rect width="1920" height="10049" transform="translate(-1389 -418)" fill="white"/>
<path id="Rectangle 38" d="M-1373 -402L515 -402V575H-1373V-402Z" fill="#FAFAFF"/>
<g id="Group 44">
<g id="Group 12">
<g id="Rectangle 5" filter="url(#filter0_d_0_1)">
<path d="M-25.0908 -82.7181C-25.0908 -92.6593 -17.0319 -100.718 -7.09082 -100.718H331.977C341.918 -100.718 349.977 -92.6593 349.977 -82.7181V20.9589C349.977 30.9 341.918 38.9589 331.977 38.9589H13.4157C9.37316 38.9589 5.47021 40.4376 2.44253 43.1163L-3.73275 48.5799C-12.0236 55.9152 -25.0908 50.0289 -25.0908 38.9589V-82.7181Z" fill="white"/>
</g>
<g id="Group 7">
<path id="Star 1" d="M11.8299 0.547729L15.1023 7.13253L22.4197 8.18846L17.1248 13.314L18.3748 20.5514L11.8299 17.1344L5.28501 20.5514L6.53497 13.314L1.24005 8.18846L8.55745 7.13253L11.8299 0.547729Z" fill="#FFCD1A"/>
<path id="Star 2" d="M35.2715 0.547729L38.544 7.13253L45.8614 8.18846L40.5665 13.314L41.8164 20.5514L35.2715 17.1344L28.7267 20.5514L29.9766 13.314L24.6817 8.18846L31.9991 7.13253L35.2715 0.547729Z" fill="#FFCD1A"/>
<path id="Star 3" d="M58.7132 0.547729L61.9856 7.13253L69.303 8.18846L64.0081 13.314L65.2581 20.5514L58.7132 17.1344L52.1683 20.5514L53.4183 13.314L48.1233 8.18846L55.4408 7.13253L58.7132 0.547729Z" fill="#FFCD1A"/>
<path id="Star 4" d="M82.1548 0.547729L85.4273 7.13253L92.7447 8.18846L87.4498 13.314L88.6997 20.5514L82.1548 17.1344L75.61 20.5514L76.8599 13.314L71.565 8.18846L78.8824 7.13253L82.1548 0.547729Z" fill="#FFCD1A"/>
<path id="Star 5" d="M105.597 0.547729L108.869 7.13253L116.187 8.18846L110.892 13.314L112.142 20.5514L105.597 17.1344L99.0519 20.5514L100.302 13.314L95.0069 8.18846L102.324 7.13253L105.597 0.547729Z" fill="#CCCCCC"/>
</g>
</g>
</g>
</g>
<defs>
<filter id="filter0_d_0_1" x="-146.988" y="-147.602" width="618.862" height="396.342" filterUnits="userSpaceOnUse" color-interpolation-filters="sRGB">
<feFlood flood-opacity="0" result="BackgroundImageFix"/>
<feColorMatrix in="SourceAlpha" type="matrix" values="0 0 0 0 0 0 0 0 0 0 0 0 0 0 0 0 0 0 127 0" result="hardAlpha"/>
<feOffset dy="75.0135"/>
<feGaussianBlur stdDeviation="60.9485"/>
<feColorMatrix type="matrix" values="0 0 0 0 0 0 0 0 0 0 0 0 0 0 0 0 0 0 0.05 0"/>
<feBlend mode="normal" in2="BackgroundImageFix" result="effect1_dropShadow_0_1"/>
<feBlend mode="normal" in="SourceGraphic" in2="effect1_dropShadow_0_1" result="shape"/>
</filter>
<clipPath id="clip0_0_1">
<rect width="1920" height="10049" fill="white" transform="translate(-1389 -418)"/>
</clipPath>
</defs>
</svg>
